<svg width="515" height="184" viewBox="0 0 515 184" fill="none" xmlns="http://www.w3.org/2000/svg">
<g filter="url(#filter0_d_841_87)">
<path d="M6.14 19.12C5.1 19.12 4.1 18.9533 3.14 18.62C2.19333 18.2733 1.46 17.8333 0.94 17.3L1.52 16.16C2.01333 16.64 2.67333 17.0467 3.5 17.38C4.34 17.7 5.22 17.86 6.14 17.86C7.02 17.86 7.73333 17.7533 8.28 17.54C8.84 17.3133 9.24667 17.0133 9.5 16.64C9.76667 16.2667 9.9 15.8533 9.9 15.4C9.9 14.8533 9.74 14.4133 9.42 14.08C9.11333 13.7467 8.70667 13.4867 8.2 13.3C7.69333 13.1 7.13333 12.9267 6.52 12.78C5.90667 12.6333 5.29333 12.48 4.68 12.32C4.06667 12.1467 3.5 11.92 2.98 11.64C2.47333 11.36 2.06 10.9933 1.74 10.54C1.43333 10.0733 1.28 9.46667 1.28 8.72C1.28 8.02667 1.46 7.39333 1.82 6.82C2.19333 6.23333 2.76 5.76667 3.52 5.42C4.28 5.06 5.25333 4.88 6.44 4.88C7.22667 4.88 8.00667 4.99333 8.78 5.22C9.55333 5.43333 10.22 5.73333 10.78 6.12L10.28 7.3C9.68 6.9 9.04 6.60667 8.36 6.42C7.69333 6.23333 7.04667 6.14 6.42 6.14C5.58 6.14 4.88667 6.25333 4.34 6.48C3.79333 6.70667 3.38667 7.01333 3.12 7.4C2.86667 7.77333 2.74 8.2 2.74 8.68C2.74 9.22667 2.89333 9.66667 3.2 10C3.52 10.3333 3.93333 10.5933 4.44 10.78C4.96 10.9667 5.52667 11.1333 6.14 11.28C6.75333 11.4267 7.36 11.5867 7.96 11.76C8.57333 11.9333 9.13333 12.16 9.64 12.44C10.16 12.7067 10.5733 13.0667 10.88 13.52C11.2 13.9733 11.36 14.5667 11.36 15.3C11.36 15.98 11.1733 16.6133 10.8 17.2C10.4267 17.7733 9.85333 18.24 9.08 18.6C8.32 18.9467 7.34 19.12 6.14 19.12ZM21.1094 19V6.28H16.1894V5H27.5094V6.28H22.5894V19H21.1094ZM35.1938 11.26H42.5938V12.52H35.1938V11.26ZM35.3538 17.72H43.7738V19H33.8738V5H43.4738V6.28H35.3538V17.72ZM52.5327 15.52L52.4727 13.72L60.9527 5H62.6527L56.4727 11.48L55.6327 12.38L52.5327 15.52ZM51.2527 19V5H52.7327V19H51.2527ZM61.3127 19L55.2727 12.04L56.2727 10.96L63.0727 19H61.3127ZM69.4714 19V5H70.9514V17.72H78.7914V19H69.4714ZM91.0953 19.12C90.042 19.12 89.062 18.9467 88.1553 18.6C87.262 18.24 86.482 17.74 85.8153 17.1C85.162 16.4467 84.6486 15.6933 84.2753 14.84C83.9153 13.9733 83.7353 13.0267 83.7353 12C83.7353 10.9733 83.9153 10.0333 84.2753 9.18C84.6486 8.31333 85.162 7.56 85.8153 6.92C86.482 6.26667 87.262 5.76667 88.1553 5.42C89.0486 5.06 90.0286 4.88 91.0953 4.88C92.1486 4.88 93.122 5.06 94.0153 5.42C94.9086 5.76667 95.682 6.26 96.3353 6.9C97.002 7.54 97.5153 8.29333 97.8753 9.16C98.2486 10.0267 98.4353 10.9733 98.4353 12C98.4353 13.0267 98.2486 13.9733 97.8753 14.84C97.5153 15.7067 97.002 16.46 96.3353 17.1C95.682 17.74 94.9086 18.24 94.0153 18.6C93.122 18.9467 92.1486 19.12 91.0953 19.12ZM91.0953 17.8C91.9353 17.8 92.7086 17.66 93.4153 17.38C94.1353 17.0867 94.7553 16.68 95.2753 16.16C95.8086 15.6267 96.222 15.0133 96.5153 14.32C96.8086 13.6133 96.9553 12.84 96.9553 12C96.9553 11.16 96.8086 10.3933 96.5153 9.7C96.222 8.99333 95.8086 8.38 95.2753 7.86C94.7553 7.32667 94.1353 6.92 93.4153 6.64C92.7086 6.34667 91.9353 6.2 91.0953 6.2C90.2553 6.2 89.4753 6.34667 88.7553 6.64C88.0353 6.92 87.4086 7.32667 86.8753 7.86C86.3553 8.38 85.942 8.99333 85.6353 9.7C85.342 10.3933 85.1953 11.16 85.1953 12C85.1953 12.8267 85.342 13.5933 85.6353 14.3C85.942 15.0067 86.3553 15.6267 86.8753 16.16C87.4086 16.68 88.0353 17.0867 88.7553 17.38C89.4753 17.66 90.2553 17.8 91.0953 17.8ZM109.153 19.12C108.246 19.12 107.439 18.9733 106.733 18.68C106.026 18.3733 105.466 17.9533 105.053 17.42C104.653 16.8867 104.453 16.2667 104.453 15.56C104.453 14.96 104.586 14.4133 104.853 13.92C105.119 13.4133 105.546 12.92 106.133 12.44C106.733 11.9467 107.526 11.4333 108.513 10.9C109.353 10.4333 110.006 10.0333 110.473 9.7C110.953 9.35333 111.293 9.02667 111.493 8.72C111.693 8.4 111.793 8.06 111.793 7.7C111.793 7.18 111.613 6.76 111.253 6.44C110.906 6.12 110.406 5.96 109.753 5.96C109.046 5.96 108.499 6.14 108.113 6.5C107.726 6.84667 107.533 7.3 107.533 7.86C107.533 8.14 107.573 8.40667 107.653 8.66C107.746 8.91333 107.913 9.19333 108.153 9.5C108.406 9.80667 108.753 10.1933 109.193 10.66L116.593 18.28L115.773 19.22L108.053 11.28C107.586 10.7867 107.213 10.36 106.933 10C106.666 9.62667 106.479 9.27333 106.373 8.94C106.266 8.60667 106.213 8.25333 106.213 7.88C106.213 7.28 106.353 6.76 106.633 6.32C106.926 5.86667 107.339 5.52 107.873 5.28C108.406 5.02667 109.033 4.9 109.753 4.9C110.406 4.9 110.973 5.01333 111.453 5.24C111.946 5.45333 112.326 5.76667 112.593 6.18C112.873 6.59333 113.013 7.09333 113.013 7.68C113.013 8.18667 112.886 8.66 112.633 9.1C112.393 9.54 111.993 9.97333 111.433 10.4C110.873 10.8133 110.113 11.28 109.153 11.8C108.313 12.2667 107.646 12.6933 107.153 13.08C106.673 13.4667 106.333 13.8467 106.133 14.22C105.933 14.58 105.833 14.98 105.833 15.42C105.833 15.9267 105.973 16.3733 106.253 16.76C106.546 17.1333 106.946 17.4267 107.453 17.64C107.973 17.84 108.566 17.94 109.233 17.94C110.166 17.94 110.999 17.7467 111.733 17.36C112.466 16.9733 113.079 16.3867 113.573 15.6C114.079 14.8133 114.446 13.8267 114.673 12.64L115.813 13C115.559 14.3333 115.126 15.4533 114.513 16.36C113.899 17.2667 113.139 17.9533 112.233 18.42C111.326 18.8867 110.299 19.12 109.153 19.12ZM123.132 19V5H124.612V19H123.132ZM133.167 19V5H138.867C140.36 5 141.667 5.3 142.787 5.9C143.92 6.48667 144.8 7.30667 145.427 8.36C146.053 9.41333 146.367 10.6267 146.367 12C146.367 13.3733 146.053 14.5867 145.427 15.64C144.8 16.6933 143.92 17.52 142.787 18.12C141.667 18.7067 140.36 19 138.867 19H133.167ZM134.647 17.72H138.787C140.027 17.72 141.1 17.48 142.007 17C142.927 16.5067 143.64 15.8333 144.147 14.98C144.653 14.1133 144.907 13.12 144.907 12C144.907 10.8667 144.653 9.87333 144.147 9.02C143.64 8.16667 142.927 7.5 142.007 7.02C141.1 6.52667 140.027 6.28 138.787 6.28H134.647V17.72ZM155.01 11.26H162.41V12.52H155.01V11.26ZM155.17 17.72H163.59V19H153.69V5H163.29V6.28H155.17V17.72ZM168.829 19L175.229 5H176.689L183.089 19H181.529L175.649 5.86H176.249L170.369 19H168.829ZM171.349 15.26L171.789 14.06H179.929L180.369 15.26H171.349Z" fill="white"/>
</g>
<path d="M20.256 71.576C17.6 71.576 15.136 71.144 12.864 70.28C10.624 69.416 8.672 68.2 7.008 66.632C5.376 65.064 4.096 63.224 3.168 61.112C2.272 59 1.824 56.696 1.824 54.2C1.824 51.704 2.272 49.4 3.168 47.288C4.096 45.176 5.392 43.336 7.056 41.768C8.72 40.2 10.672 38.984 12.912 38.12C15.152 37.256 17.584 36.824 20.208 36.824C22.864 36.824 25.296 37.256 27.504 38.12C29.744 38.984 31.68 40.2 33.312 41.768C34.976 43.336 36.272 45.176 37.2 47.288C38.128 49.368 38.592 51.672 38.592 54.2C38.592 56.696 38.128 59.016 37.2 61.16C36.272 63.272 34.976 65.112 33.312 66.68C31.68 68.216 29.744 69.416 27.504 70.28C25.296 71.144 22.88 71.576 20.256 71.576ZM20.208 64.952C21.712 64.952 23.088 64.696 24.336 64.184C25.616 63.672 26.736 62.936 27.696 61.976C28.656 61.016 29.392 59.88 29.904 58.568C30.448 57.256 30.72 55.8 30.72 54.2C30.72 52.6 30.448 51.144 29.904 49.832C29.392 48.52 28.656 47.384 27.696 46.424C26.768 45.464 25.664 44.728 24.384 44.216C23.104 43.704 21.712 43.448 20.208 43.448C18.704 43.448 17.312 43.704 16.032 44.216C14.784 44.728 13.68 45.464 12.72 46.424C11.76 47.384 11.008 48.52 10.464 49.832C9.952 51.144 9.696 52.6 9.696 54.2C9.696 55.768 9.952 57.224 10.464 58.568C11.008 59.88 11.744 61.016 12.672 61.976C13.632 62.936 14.752 63.672 16.032 64.184C17.312 64.696 18.704 64.952 20.208 64.952ZM51.3615 71V41.96L53.1375 43.736H40.6575V37.4H69.7935V43.736H57.3135L59.0415 41.96V71H51.3615ZM74.676 71V37.4H89.22C92.228 37.4 94.82 37.896 96.996 38.888C99.172 39.848 100.852 41.24 102.036 43.064C103.22 44.888 103.812 47.064 103.812 49.592C103.812 52.088 103.22 54.248 102.036 56.072C100.852 57.896 99.172 59.304 96.996 60.296C94.82 61.256 92.228 61.736 89.22 61.736H78.996L82.452 58.232V71H74.676ZM82.452 59.096L78.996 55.4H88.788C91.188 55.4 92.98 54.888 94.164 53.864C95.348 52.84 95.94 51.416 95.94 49.592C95.94 47.736 95.348 46.296 94.164 45.272C92.98 44.248 91.188 43.736 88.788 43.736H78.996L82.452 40.04V59.096ZM103.462 71L118.438 37.4H126.118L141.142 71H132.982L120.694 41.336H123.766L111.43 71H103.462ZM110.95 63.8L113.014 57.896H130.294L132.406 63.8H110.95ZM181.833 71L172.809 54.824L179.385 51.032L190.809 71H181.833ZM167.097 57.464V50.984H177.561V57.464H167.097ZM179.817 55.064L172.617 54.2L181.977 37.4H190.185L179.817 55.064ZM149.241 71H140.265L151.689 51.032L158.265 54.824L149.241 71ZM169.401 71H161.769V37.4H169.401V71ZM164.025 57.464H153.513V50.984H164.025V57.464ZM151.305 55.064L140.889 37.4H149.097L158.409 54.2L151.305 55.064ZM201.687 50.936H217.863V56.984H201.687V50.936ZM202.263 64.76H220.551V71H194.535V37.4H219.927V43.64H202.263V64.76ZM249.872 37.4H257.648V71H249.872V37.4ZM234.608 71H226.832V37.4H234.608V71ZM250.448 57.224H234.032V50.648H250.448V57.224ZM266.067 71V37.4H273.795V59.288L289.827 37.4H297.123V71H289.443V49.16L273.411 71H266.067ZM312.641 50.936H328.817V56.984H312.641V50.936ZM313.217 64.76H331.505V71H305.489V37.4H330.881V43.64H313.217V64.76ZM4.176 130V96.4H19.824C23.728 96.4 26.768 97.152 28.944 98.656C31.12 100.16 32.208 102.304 32.208 105.088C32.208 107.84 31.184 109.984 29.136 111.52C27.088 113.024 24.368 113.776 20.976 113.776L21.888 111.76C25.664 111.76 28.592 112.512 30.672 114.016C32.752 115.52 33.792 117.696 33.792 120.544C33.792 123.488 32.672 125.808 30.432 127.504C28.224 129.168 24.992 130 20.736 130H4.176ZM11.904 124.24H20.448C22.24 124.24 23.6 123.888 24.528 123.184C25.456 122.48 25.92 121.392 25.92 119.92C25.92 118.512 25.456 117.472 24.528 116.8C23.6 116.096 22.24 115.744 20.448 115.744H11.904V124.24ZM11.904 110.32H19.152C20.848 110.32 22.128 109.984 22.992 109.312C23.856 108.608 24.288 107.584 24.288 106.24C24.288 104.896 23.856 103.888 22.992 103.216C22.128 102.512 20.848 102.16 19.152 102.16H11.904V110.32ZM36.1496 130L51.1256 96.4H58.8056L73.8296 130H65.6696L53.3816 100.336H56.4536L44.1176 130H36.1496ZM43.6376 122.8L45.7016 116.896H62.9816L65.0936 122.8H43.6376ZM98.3494 123.664L96.6214 125.44V96.4H104.349V125.44L102.525 123.664H116.733L114.909 125.44V96.4H122.637V130H78.2854V96.4H86.0134V125.44L84.2374 123.664H98.3494ZM130.973 130V96.4H138.701V118.288L154.733 96.4H162.029V130H154.349V108.16L138.317 130H130.973ZM167.467 96.4H176.443L183.403 106.576L190.363 96.4H199.483L188.299 112.48L200.395 130H191.227L183.403 118.864L175.675 130H166.699L178.699 112.816L167.467 96.4ZM236.389 127.888C232.037 127.888 228.341 127.312 225.301 126.16C222.293 125.008 220.005 123.344 218.437 121.168C216.869 118.96 216.085 116.272 216.085 113.104C216.085 109.936 216.869 107.264 218.437 105.088C220.005 102.88 222.293 101.2 225.301 100.048C228.341 98.896 232.037 98.32 236.389 98.32C236.453 98.32 236.629 98.32 236.917 98.32C237.237 98.32 237.541 98.32 237.829 98.32C238.149 98.32 238.325 98.32 238.357 98.32C242.677 98.32 246.325 98.896 249.301 100.048C252.309 101.2 254.581 102.88 256.117 105.088C257.653 107.296 258.421 109.968 258.421 113.104C258.421 116.208 257.653 118.88 256.117 121.12C254.613 123.328 252.389 125.008 249.445 126.16C246.533 127.312 242.965 127.888 238.741 127.888C238.645 127.888 238.421 127.888 238.069 127.888C237.717 127.888 237.365 127.888 237.013 127.888C236.693 127.888 236.485 127.888 236.389 127.888ZM237.109 121.888C237.205 121.888 237.333 121.888 237.493 121.888C237.653 121.888 237.765 121.888 237.829 121.888C240.773 121.888 243.205 121.568 245.125 120.928C247.077 120.256 248.533 119.28 249.493 118C250.453 116.688 250.933 115.04 250.933 113.056C250.933 111.072 250.437 109.44 249.445 108.16C248.453 106.88 246.997 105.936 245.077 105.328C243.189 104.688 240.805 104.368 237.925 104.368C237.861 104.368 237.733 104.368 237.541 104.368C237.381 104.368 237.237 104.368 237.109 104.368C234.069 104.368 231.557 104.672 229.573 105.28C227.589 105.888 226.101 106.848 225.109 108.16C224.117 109.44 223.621 111.088 223.621 113.104C223.621 115.12 224.149 116.784 225.205 118.096C226.261 119.376 227.781 120.336 229.765 120.976C231.781 121.584 234.229 121.888 237.109 121.888ZM233.701 131.488V94.96H240.853V131.488H233.701ZM259.978 130L274.954 96.4H282.634L297.658 130H289.498L277.21 100.336H280.282L267.946 130H259.978ZM267.466 122.8L269.53 116.896H286.81L288.922 122.8H267.466ZM325.154 96.4H332.93V130H325.154V96.4ZM309.89 130H302.114V96.4H309.89V130ZM325.73 116.224H309.314V109.648H325.73V116.224ZM348.596 130V100.96L350.372 102.736H337.892V96.4H367.028V102.736H354.548L356.276 100.96V130H348.596ZM366.431 130L381.407 96.4H389.087L404.111 130H395.951L383.663 100.336H386.735L374.399 130H366.431ZM373.919 122.8L375.983 116.896H393.263L395.375 122.8H373.919ZM405.543 127.024L407.943 121.456C409.383 122.32 410.919 122.992 412.551 123.472C414.215 123.92 415.831 124.176 417.399 124.24C418.999 124.272 420.439 124.112 421.719 123.76C423.031 123.408 424.071 122.88 424.839 122.176C425.639 121.472 426.039 120.576 426.039 119.488C426.039 118.208 425.511 117.264 424.455 116.656C423.399 116.016 421.991 115.696 420.231 115.696H412.023V109.84H419.655C421.223 109.84 422.439 109.52 423.303 108.88C424.199 108.24 424.647 107.36 424.647 106.24C424.647 105.28 424.327 104.512 423.687 103.936C423.047 103.328 422.167 102.88 421.047 102.592C419.959 102.304 418.727 102.176 417.351 102.208C415.975 102.24 414.551 102.464 413.079 102.88C411.607 103.296 410.199 103.872 408.855 104.608L406.503 98.608C408.679 97.488 410.967 96.72 413.367 96.304C415.799 95.856 418.135 95.744 420.375 95.968C422.647 96.16 424.695 96.672 426.519 97.504C428.343 98.304 429.799 99.36 430.887 100.672C431.975 101.984 432.519 103.536 432.519 105.328C432.519 106.928 432.103 108.352 431.271 109.6C430.439 110.848 429.271 111.808 427.767 112.48C426.295 113.152 424.599 113.488 422.679 113.488L422.871 111.76C425.111 111.76 427.047 112.144 428.679 112.912C430.343 113.648 431.623 114.688 432.519 116.032C433.447 117.344 433.911 118.864 433.911 120.592C433.911 122.192 433.479 123.632 432.615 124.912C431.783 126.16 430.631 127.216 429.159 128.08C427.687 128.944 426.007 129.584 424.119 130C422.231 130.416 420.215 130.592 418.071 130.528C415.959 130.464 413.831 130.16 411.687 129.616C409.543 129.04 407.495 128.176 405.543 127.024ZM440.067 130V96.4H447.795V118.288L463.827 96.4H471.123V130H463.443V108.16L447.411 130H440.067ZM479.489 130V96.4H487.217V118.288L503.249 96.4H510.545V130H502.865V108.16L486.833 130H479.489ZM494.993 94.24C491.793 94.24 489.441 93.6 487.937 92.32C486.465 91.04 485.713 89.232 485.681 86.896H491.009C491.041 88.048 491.377 88.928 492.017 89.536C492.689 90.112 493.681 90.4 494.993 90.4C496.273 90.4 497.249 90.112 497.921 89.536C498.593 88.928 498.945 88.048 498.977 86.896H504.305C504.273 89.232 503.505 91.04 502.001 92.32C500.497 93.6 498.161 94.24 494.993 94.24Z" fill="white"/>
<path d="M232.068 177V158.8H239.634C241.558 158.8 243.066 159.199 244.158 159.996C245.267 160.776 245.822 161.929 245.822 163.454C245.822 164.962 245.293 166.106 244.236 166.886C243.179 167.649 241.792 168.03 240.076 168.03L240.518 167.38C242.546 167.38 244.089 167.779 245.146 168.576C246.203 169.373 246.732 170.543 246.732 172.086C246.732 173.646 246.177 174.859 245.068 175.726C243.976 176.575 242.329 177 240.128 177H232.068ZM233.966 175.466H240.128C241.671 175.466 242.841 175.18 243.638 174.608C244.435 174.036 244.834 173.152 244.834 171.956C244.834 170.777 244.435 169.911 243.638 169.356C242.841 168.801 241.671 168.524 240.128 168.524H233.966V175.466ZM233.966 167.042H239.53C240.934 167.042 242.009 166.765 242.754 166.21C243.517 165.638 243.898 164.797 243.898 163.688C243.898 162.579 243.517 161.747 242.754 161.192C242.009 160.62 240.934 160.334 239.53 160.334H233.966V167.042ZM271.659 158.8H273.557V177H271.659V158.8ZM260.271 177H258.347V158.8H260.271V177ZM271.841 168.602H260.063V166.912H271.841V168.602ZM277.023 177L285.343 158.8H287.241L295.561 177H293.533L285.889 159.918H286.669L279.025 177H277.023ZM280.299 172.138L280.871 170.578H291.453L292.025 172.138H280.299ZM309.734 175.336L309.266 175.856V158.8H311.164V175.856L310.644 175.336H319.978L319.458 175.856V158.8H321.356V177H299.048V158.8H300.946V175.856L300.452 175.336H309.734ZM327.486 177V158.8H329.384V173.88L341.032 158.8H342.774V177H340.876V161.946L329.228 177H327.486ZM346.888 158.8H349.098L354.272 166.002L359.42 158.8H361.682L355.468 167.536L362.176 177H359.914L354.272 169.174L348.63 177H346.42L353.102 167.614L346.888 158.8ZM370.473 174.816L371.175 173.438C371.972 174.131 372.865 174.651 373.853 174.998C374.858 175.327 375.863 175.501 376.869 175.518C377.874 175.518 378.793 175.371 379.625 175.076C380.474 174.781 381.159 174.348 381.679 173.776C382.199 173.187 382.459 172.476 382.459 171.644C382.459 170.587 382.034 169.772 381.185 169.2C380.353 168.628 379.191 168.342 377.701 168.342H373.801V166.782H377.597C378.879 166.782 379.876 166.513 380.587 165.976C381.315 165.421 381.679 164.659 381.679 163.688C381.679 162.995 381.471 162.405 381.055 161.92C380.656 161.417 380.101 161.036 379.391 160.776C378.697 160.499 377.917 160.351 377.051 160.334C376.184 160.299 375.283 160.412 374.347 160.672C373.428 160.915 372.535 161.305 371.669 161.842L371.045 160.256C372.119 159.615 373.237 159.173 374.399 158.93C375.56 158.67 376.687 158.583 377.779 158.67C378.871 158.757 379.85 159.008 380.717 159.424C381.601 159.84 382.303 160.386 382.823 161.062C383.343 161.738 383.603 162.544 383.603 163.48C383.603 164.347 383.377 165.109 382.926 165.768C382.493 166.427 381.878 166.938 381.081 167.302C380.301 167.649 379.373 167.822 378.299 167.822L378.403 167.25C379.616 167.25 380.665 167.441 381.549 167.822C382.45 168.203 383.143 168.749 383.629 169.46C384.131 170.153 384.383 170.968 384.383 171.904C384.383 172.788 384.157 173.577 383.707 174.27C383.273 174.946 382.667 175.518 381.887 175.986C381.124 176.437 380.266 176.766 379.313 176.974C378.359 177.165 377.363 177.217 376.323 177.13C375.283 177.043 374.26 176.818 373.255 176.454C372.249 176.073 371.322 175.527 370.473 174.816ZM390.876 166.938H400.496V168.576H390.876V166.938ZM391.084 175.336H402.03V177H389.16V158.8H401.64V160.464H391.084V175.336ZM406.298 177V158.8H413.11C414.653 158.8 415.979 159.051 417.088 159.554C418.198 160.039 419.047 160.75 419.636 161.686C420.243 162.605 420.546 163.723 420.546 165.04C420.546 166.323 420.243 167.432 419.636 168.368C419.047 169.287 418.198 169.997 417.088 170.5C415.979 171.003 414.653 171.254 413.11 171.254H407.364L408.222 170.344V177H406.298ZM408.222 170.5L407.364 169.564H413.058C414.878 169.564 416.256 169.174 417.192 168.394C418.146 167.597 418.622 166.479 418.622 165.04C418.622 163.584 418.146 162.457 417.192 161.66C416.256 160.863 414.878 160.464 413.058 160.464H407.364L408.222 159.554V170.5ZM436.932 177L429.938 167.926L431.498 166.99L439.142 177H436.932ZM424.478 177V158.8H426.35V177H424.478ZM425.778 168.654V166.964H431.472V168.654H425.778ZM431.654 168.108L429.886 167.796L436.672 158.8H438.752L431.654 168.108ZM439.218 177L447.538 158.8H449.436L457.756 177H455.728L448.084 159.918H448.864L441.22 177H439.218ZM442.494 172.138L443.066 170.578H453.648L454.22 172.138H442.494ZM459.918 177.156C459.675 177.156 459.441 177.139 459.216 177.104C458.99 177.087 458.739 177.043 458.462 176.974L458.618 175.258C458.912 175.327 459.198 175.362 459.476 175.362C460.256 175.362 460.88 175.059 461.348 174.452C461.833 173.828 462.197 172.875 462.44 171.592C462.682 170.292 462.838 168.628 462.908 166.6L463.168 158.8H475.518V177H473.62V159.944L474.114 160.464H464.39L464.858 159.918L464.624 166.548C464.554 168.368 464.424 169.945 464.234 171.28C464.043 172.597 463.766 173.698 463.402 174.582C463.038 175.449 462.57 176.099 461.998 176.532C461.426 176.948 460.732 177.156 459.918 177.156ZM478.98 177L487.3 158.8H489.198L497.518 177H495.49L487.846 159.918H488.626L480.982 177H478.98ZM482.256 172.138L482.828 170.578H493.41L493.982 172.138H482.256ZM498.14 158.8H500.35L505.524 166.002L510.672 158.8H512.934L506.72 167.536L513.428 177H511.166L505.524 169.174L499.882 177H497.672L504.354 167.614L498.14 158.8Z" fill="white"/>
<defs>
<filter id="filter0_d_841_87" x="0.940002" y="4.87988" width="201.149" height="22.3403" filterUnits="userSpaceOnUse" color-interpolation-filters="sRGB">
<feFlood flood-opacity="0" result="BackgroundImageFix"/>
<feColorMatrix in="SourceAlpha" type="matrix" values="0 0 0 0 0 0 0 0 0 0 0 0 0 0 0 0 0 0 127 0" result="hardAlpha"/>
<feOffset dx="15" dy="4"/>
<feGaussianBlur stdDeviation="2"/>
<feComposite in2="hardAlpha" operator="out"/>
<feColorMatrix type="matrix" values="0 0 0 0 0 0 0 0 0 0 0 0 0 0 0 0 0 0 0.1 0"/>
<feBlend mode="normal" in2="BackgroundImageFix" result="effect1_dropShadow_841_87"/>
<feBlend mode="normal" in="SourceGraphic" in2="effect1_dropShadow_841_87" result="shape"/>
</filter>
</defs>
</svg>
