<svg width="34" height="29" viewBox="0 0 34 29" fill="none" xmlns="http://www.w3.org/2000/svg">
<path d="M30.7354 0.264282C30.7354 0.264282 33.8437 -0.947717 33.5846 1.99571C33.4983 3.20773 32.7213 7.44972 32.1169 12.038L30.0447 25.6298C30.0447 25.6298 29.8721 27.6209 28.3179 27.9672C26.7637 28.3135 24.4326 26.7552 24.0009 26.4089C23.6555 26.1492 17.5254 22.2535 15.3669 20.3489C14.7625 19.8295 14.0718 18.7906 15.4532 17.5786L24.5189 8.92148C25.555 7.88261 26.5911 5.45861 22.2741 8.40204L10.1865 16.6264C10.1865 16.6264 8.80504 17.492 6.21488 16.7129L0.602736 14.9815C0.602736 14.9815 -1.46943 13.6829 2.07052 12.3843C10.7046 8.3154 21.3244 4.15997 30.7354 0.264282Z" fill="white" fill-opacity="0.9"/>
</svg>
