<svg width="425" height="159" viewBox="0 0 425 159" fill="none" xmlns="http://www.w3.org/2000/svg">
<path d="M0 158.632V0H45.9287V20.6764H26.4387V137.956H45.9287V158.632H0Z" fill="#A565C2"/>
<path d="M218.543 158.632H172.783V137.956H192.104V20.6764H172.783V0H218.543V158.632Z" fill="#A565C2"/>
<path d="M250.18 61.375C246.789 61.375 244.367 60.7734 242.914 59.5703C241.477 58.3516 240.719 56.3359 240.641 53.5234C240.578 51.7734 240.531 49.7891 240.5 47.5703C240.484 45.3516 240.484 43.1328 240.5 40.9141C240.531 38.6953 240.578 36.7031 240.641 34.9375C240.703 32.5156 241.477 30.6094 242.961 29.2188C244.445 27.8281 246.844 27.1328 250.156 27.1328C253.484 27.1328 255.898 27.7422 257.398 28.9609C258.914 30.1797 259.719 32.1875 259.812 34.9844C259.844 35.6875 259.852 36.5078 259.836 37.4453C259.82 38.3672 259.797 39.1875 259.766 39.9062H254.281C254.312 39.0781 254.328 38.0859 254.328 36.9297C254.344 35.7578 254.336 34.7656 254.305 33.9531C254.289 33.2188 253.953 32.6719 253.297 32.3125C252.641 31.9375 251.594 31.75 250.156 31.75C248.781 31.75 247.773 31.9375 247.133 32.3125C246.508 32.6719 246.172 33.2188 246.125 33.9531C246.047 36.0469 245.992 38.2891 245.961 40.6797C245.93 43.0547 245.93 45.4375 245.961 47.8281C245.992 50.2188 246.047 52.4609 246.125 54.5547C246.172 55.2891 246.516 55.8438 247.156 56.2188C247.797 56.5938 248.805 56.7812 250.18 56.7812C251.695 56.7812 252.797 56.5938 253.484 56.2188C254.172 55.8438 254.531 55.2891 254.562 54.5547C254.594 53.7266 254.602 52.7266 254.586 51.5547C254.57 50.3672 254.547 49.3594 254.516 48.5312H260.023C260.07 49.2969 260.094 50.125 260.094 51.0156C260.109 51.9062 260.094 52.7422 260.047 53.5234C259.938 56.3359 259.117 58.3516 257.586 59.5703C256.07 60.7734 253.602 61.375 250.18 61.375ZM250.016 99.375C246.578 99.375 244.117 98.7734 242.633 97.5703C241.148 96.3516 240.344 94.3281 240.219 91.5C240.094 89.875 240.133 88.2109 240.336 86.5078H245.586C245.492 87.5859 245.438 88.6406 245.422 89.6719C245.422 90.7031 245.477 91.6641 245.586 92.5547C245.664 93.2734 246.039 93.8281 246.711 94.2188C247.398 94.5938 248.492 94.7812 249.992 94.7812C251.477 94.7812 252.539 94.5938 253.18 94.2188C253.836 93.8281 254.211 93.2734 254.305 92.5547C254.414 91.7422 254.461 90.9766 254.445 90.2578C254.43 89.5234 254.383 88.75 254.305 87.9375C254.227 87.2656 253.977 86.6719 253.555 86.1562C253.133 85.6406 252.297 85.2969 251.047 85.125L247.156 84.3047C245.312 83.9453 243.891 83.4297 242.891 82.7578C241.906 82.0859 241.211 81.2422 240.805 80.2266C240.398 79.2109 240.164 78.0156 240.102 76.6406C240.07 75.9844 240.055 75.3594 240.055 74.7656C240.07 74.1719 240.094 73.5781 240.125 72.9844C240.219 70.1875 241.008 68.1797 242.492 66.9609C243.977 65.7422 246.477 65.1328 249.992 65.1328C253.305 65.1328 255.703 65.7422 257.188 66.9609C258.672 68.1797 259.469 70.1875 259.578 72.9844C259.625 73.6094 259.633 74.3828 259.602 75.3047C259.586 76.2109 259.555 77.0781 259.508 77.9062H254.211C254.352 75.8594 254.367 73.8672 254.258 71.9297C254.133 70.4609 252.703 69.7266 249.969 69.7266C248.484 69.7266 247.414 69.9141 246.758 70.2891C246.102 70.6641 245.727 71.2109 245.633 71.9297C245.523 72.7109 245.469 73.5 245.469 74.2969C245.484 75.0781 245.539 75.8594 245.633 76.6406C245.711 77.3281 245.961 77.9219 246.383 78.4219C246.805 78.9062 247.68 79.2344 249.008 79.4062L252.594 80.0859C254.5 80.4297 255.961 80.9531 256.977 81.6562C257.992 82.3594 258.703 83.2344 259.109 84.2812C259.531 85.3125 259.773 86.5312 259.836 87.9375C259.883 88.5625 259.898 89.1641 259.883 89.7422C259.867 90.3203 259.836 90.9062 259.789 91.5C259.664 94.3281 258.852 96.3516 257.352 97.5703C255.867 98.7734 253.422 99.375 250.016 99.375ZM246.148 137H240.664V103.531H249.734C253.125 103.531 255.578 104.125 257.094 105.312C258.609 106.5 259.438 108.461 259.578 111.195C259.688 112.492 259.742 113.688 259.742 114.781C259.742 115.859 259.688 117.023 259.578 118.273C259.438 120.992 258.602 122.945 257.07 124.133C255.555 125.32 253.086 125.914 249.664 125.914H246.148V137ZM246.148 108.5V120.945H249.664C251.18 120.945 252.273 120.742 252.945 120.336C253.633 119.93 254.008 119.344 254.07 118.578C254.18 117.422 254.234 116.141 254.234 114.734C254.234 113.312 254.18 112.031 254.07 110.891C254.008 110.109 253.641 109.516 252.969 109.109C252.297 108.703 251.219 108.5 249.734 108.5H246.148Z" fill="#A565C2"/>
<path d="M272.82 61.375C269.367 61.375 266.883 60.7734 265.367 59.5703C263.852 58.3516 263.055 56.3359 262.977 53.5234C262.867 50.5547 262.812 47.4688 262.812 44.2656C262.812 41.0469 262.867 37.9531 262.977 34.9844C263.055 32.1875 263.852 30.1797 265.367 28.9609C266.883 27.7422 269.367 27.1328 272.82 27.1328C276.289 27.1328 278.773 27.7422 280.273 28.9609C281.789 30.1797 282.586 32.1875 282.664 34.9844C282.773 37.9844 282.828 41.0859 282.828 44.2891C282.828 47.4766 282.773 50.5547 282.664 53.5234C282.586 56.3359 281.789 58.3516 280.273 59.5703C278.773 60.7734 276.289 61.375 272.82 61.375ZM272.82 56.7812C274.352 56.7812 275.453 56.5938 276.125 56.2188C276.797 55.8438 277.148 55.2969 277.18 54.5781C277.305 52.5156 277.383 50.2812 277.414 47.875C277.445 45.4531 277.438 43.0312 277.391 40.6094C277.359 38.1875 277.289 35.9609 277.18 33.9297C277.148 33.1953 276.789 32.6484 276.102 32.2891C275.414 31.9141 274.32 31.7266 272.82 31.7266C271.336 31.7266 270.25 31.9141 269.562 32.2891C268.875 32.6484 268.508 33.1953 268.461 33.9297C268.336 35.9609 268.258 38.1875 268.227 40.6094C268.195 43.0312 268.203 45.4531 268.25 47.875C268.297 50.2812 268.367 52.5156 268.461 54.5781C268.508 55.2969 268.875 55.8438 269.562 56.2188C270.25 56.5938 271.336 56.7812 272.82 56.7812ZM291.43 61H285.945V27.5312H294.641L296.891 40.3984L297.148 56.0078H298.016L298.25 40.3984L300.523 27.5312H309.195V61H303.688V50.8047L304.766 32.5H303.852L302.633 51.1562L300.453 60.9531H294.711L292.555 51.1562L291.266 32.5H290.422L291.43 50.8047V61ZM318.008 61H312.523V27.5312H321.594C324.984 27.5312 327.438 28.125 328.953 29.3125C330.469 30.5 331.297 32.4609 331.438 35.1953C331.547 36.4922 331.602 37.6875 331.602 38.7812C331.602 39.8594 331.547 41.0234 331.438 42.2734C331.297 44.9922 330.461 46.9453 328.93 48.1328C327.414 49.3203 324.945 49.9141 321.523 49.9141H318.008V61ZM318.008 32.5V44.9453H321.523C323.039 44.9453 324.133 44.7422 324.805 44.3359C325.492 43.9297 325.867 43.3438 325.93 42.5781C326.039 41.4219 326.094 40.1406 326.094 38.7344C326.094 37.3125 326.039 36.0312 325.93 34.8906C325.867 34.1094 325.5 33.5156 324.828 33.1094C324.156 32.7031 323.078 32.5 321.594 32.5H318.008ZM343.883 61.375C340.352 61.375 337.812 60.7734 336.266 59.5703C334.734 58.3516 333.953 56.3359 333.922 53.5234C333.734 44.8516 333.734 36.1875 333.922 27.5312H339.406C339.297 31.8125 339.242 36.3203 339.242 41.0547C339.242 45.7734 339.273 50.2812 339.336 54.5781C339.336 56.0469 340.852 56.7812 343.883 56.7812C346.836 56.7812 348.312 56.0469 348.312 54.5781C348.391 50.2812 348.43 45.7734 348.43 41.0547C348.445 36.3203 348.406 31.8125 348.312 27.5312H353.797C353.984 36.1875 353.984 44.8516 353.797 53.5234C353.781 56.3359 353 58.3516 351.453 59.5703C349.906 60.7734 347.383 61.375 343.883 61.375ZM367.367 61H361.883V32.5H355.508V27.5312H373.719V32.5H367.367V61ZM392.047 61H375.664V27.5312H392.047V32.5H381.148V41.5234H391.414V46.4922H381.148V56.0312H392.047V61ZM400.133 61H394.648V27.5312H403.625C406.984 27.5312 409.414 28.125 410.914 29.3125C412.43 30.5 413.25 32.4609 413.375 35.1953C413.484 36.4922 413.531 37.6016 413.516 38.5234C413.516 39.4453 413.469 40.5312 413.375 41.7812C413.297 43.5156 412.898 44.9297 412.18 46.0234C411.461 47.1016 410.359 47.9219 408.875 48.4844L414.336 61H408.477L403.648 49.4219H400.133V61ZM400.133 32.5V44.4531H403.555C405.039 44.4531 406.117 44.25 406.789 43.8438C407.461 43.4375 407.828 42.8516 407.891 42.0859C408.094 39.6797 408.094 37.2812 407.891 34.8906C407.828 34.1094 407.461 33.5156 406.789 33.1094C406.117 32.7031 405.062 32.5 403.625 32.5H400.133ZM272.117 99.375C268.727 99.375 266.305 98.7734 264.852 97.5703C263.414 96.3516 262.656 94.3359 262.578 91.5234C262.516 89.7734 262.469 87.7891 262.438 85.5703C262.422 83.3516 262.422 81.1328 262.438 78.9141C262.469 76.6953 262.516 74.7031 262.578 72.9375C262.641 70.5156 263.414 68.6094 264.898 67.2188C266.383 65.8281 268.781 65.1328 272.094 65.1328C275.422 65.1328 277.836 65.7422 279.336 66.9609C280.852 68.1797 281.656 70.1875 281.75 72.9844C281.781 73.6875 281.789 74.5078 281.773 75.4453C281.758 76.3672 281.734 77.1875 281.703 77.9062H276.219C276.25 77.0781 276.266 76.0859 276.266 74.9297C276.281 73.7578 276.273 72.7656 276.242 71.9531C276.227 71.2188 275.891 70.6719 275.234 70.3125C274.578 69.9375 273.531 69.75 272.094 69.75C270.719 69.75 269.711 69.9375 269.07 70.3125C268.445 70.6719 268.109 71.2188 268.062 71.9531C267.984 74.0469 267.93 76.2891 267.898 78.6797C267.867 81.0547 267.867 83.4375 267.898 85.8281C267.93 88.2188 267.984 90.4609 268.062 92.5547C268.109 93.2891 268.453 93.8438 269.094 94.2188C269.734 94.5938 270.742 94.7812 272.117 94.7812C273.633 94.7812 274.734 94.5938 275.422 94.2188C276.109 93.8438 276.469 93.2891 276.5 92.5547C276.531 91.7266 276.539 90.7266 276.523 89.5547C276.508 88.3672 276.484 87.3594 276.453 86.5312H281.961C282.008 87.2969 282.031 88.125 282.031 89.0156C282.047 89.9062 282.031 90.7422 281.984 91.5234C281.875 94.3359 281.055 96.3516 279.523 97.5703C278.008 98.7734 275.539 99.375 272.117 99.375ZM291.078 99H285.594V65.5312H291.078V99ZM311.422 99H295.039V65.5312H311.422V70.5H300.523V79.5234H310.789V84.4922H300.523V94.0312H311.422V99ZM319.344 99H314.023V65.5312H322.484L325.203 76.1953L328.484 94.0312H329.773L328.766 79.4297L328.367 65.5312H333.688V99H324.875L321.992 87.8438L319.32 70.4766H317.984L318.898 86.2031L319.344 99ZM346.555 99.375C343.164 99.375 340.742 98.7734 339.289 97.5703C337.852 96.3516 337.094 94.3359 337.016 91.5234C336.953 89.7734 336.906 87.7891 336.875 85.5703C336.859 83.3516 336.859 81.1328 336.875 78.9141C336.906 76.6953 336.953 74.7031 337.016 72.9375C337.078 70.5156 337.852 68.6094 339.336 67.2188C340.82 65.8281 343.219 65.1328 346.531 65.1328C349.859 65.1328 352.273 65.7422 353.773 66.9609C355.289 68.1797 356.094 70.1875 356.188 72.9844C356.219 73.6875 356.227 74.5078 356.211 75.4453C356.195 76.3672 356.172 77.1875 356.141 77.9062H350.656C350.688 77.0781 350.703 76.0859 350.703 74.9297C350.719 73.7578 350.711 72.7656 350.68 71.9531C350.664 71.2188 350.328 70.6719 349.672 70.3125C349.016 69.9375 347.969 69.75 346.531 69.75C345.156 69.75 344.148 69.9375 343.508 70.3125C342.883 70.6719 342.547 71.2188 342.5 71.9531C342.422 74.0469 342.367 76.2891 342.336 78.6797C342.305 81.0547 342.305 83.4375 342.336 85.8281C342.367 88.2188 342.422 90.4609 342.5 92.5547C342.547 93.2891 342.891 93.8438 343.531 94.2188C344.172 94.5938 345.18 94.7812 346.555 94.7812C348.07 94.7812 349.172 94.5938 349.859 94.2188C350.547 93.8438 350.906 93.2891 350.938 92.5547C350.969 91.7266 350.977 90.7266 350.961 89.5547C350.945 88.3672 350.922 87.3594 350.891 86.5312H356.398C356.445 87.2969 356.469 88.125 356.469 89.0156C356.484 89.9062 356.469 90.7422 356.422 91.5234C356.312 94.3359 355.492 96.3516 353.961 97.5703C352.445 98.7734 349.977 99.375 346.555 99.375ZM375.781 99H359.398V65.5312H375.781V70.5H364.883V79.5234H375.148V84.4922H364.883V94.0312H375.781V99ZM267.758 137H262.273V103.531H271.25C274.609 103.531 277.039 104.125 278.539 105.312C280.055 106.5 280.875 108.461 281 111.195C281.109 112.492 281.156 113.602 281.141 114.523C281.141 115.445 281.094 116.531 281 117.781C280.922 119.516 280.523 120.93 279.805 122.023C279.086 123.102 277.984 123.922 276.5 124.484L281.961 137H276.102L271.273 125.422H267.758V137ZM267.758 108.5V120.453H271.18C272.664 120.453 273.742 120.25 274.414 119.844C275.086 119.438 275.453 118.852 275.516 118.086C275.719 115.68 275.719 113.281 275.516 110.891C275.453 110.109 275.086 109.516 274.414 109.109C273.742 108.703 272.688 108.5 271.25 108.5H267.758ZM294.195 137.375C290.742 137.375 288.258 136.773 286.742 135.57C285.227 134.352 284.43 132.336 284.352 129.523C284.242 126.555 284.188 123.469 284.188 120.266C284.188 117.047 284.242 113.953 284.352 110.984C284.43 108.188 285.227 106.18 286.742 104.961C288.258 103.742 290.742 103.133 294.195 103.133C297.664 103.133 300.148 103.742 301.648 104.961C303.164 106.18 303.961 108.188 304.039 110.984C304.148 113.984 304.203 117.086 304.203 120.289C304.203 123.477 304.148 126.555 304.039 129.523C303.961 132.336 303.164 134.352 301.648 135.57C300.148 136.773 297.664 137.375 294.195 137.375ZM294.195 132.781C295.727 132.781 296.828 132.594 297.5 132.219C298.172 131.844 298.523 131.297 298.555 130.578C298.68 128.516 298.758 126.281 298.789 123.875C298.82 121.453 298.812 119.031 298.766 116.609C298.734 114.188 298.664 111.961 298.555 109.93C298.523 109.195 298.164 108.648 297.477 108.289C296.789 107.914 295.695 107.727 294.195 107.727C292.711 107.727 291.625 107.914 290.938 108.289C290.25 108.648 289.883 109.195 289.836 109.93C289.711 111.961 289.633 114.188 289.602 116.609C289.57 119.031 289.578 121.453 289.625 123.875C289.672 126.281 289.742 128.516 289.836 130.578C289.883 131.297 290.25 131.844 290.938 132.219C291.625 132.594 292.711 132.781 294.195 132.781ZM315.734 137.375C312.344 137.375 309.961 136.773 308.586 135.57C307.227 134.352 306.5 132.328 306.406 129.5C306.328 127.844 306.328 126.18 306.406 124.508H311.609C311.547 125.336 311.516 126.344 311.516 127.531C311.516 128.719 311.547 129.727 311.609 130.555C311.672 131.273 312.016 131.828 312.641 132.219C313.281 132.594 314.312 132.781 315.734 132.781C317.156 132.781 318.172 132.594 318.781 132.219C319.406 131.828 319.719 131.273 319.719 130.555V103.531H325.203V129.5C325.203 132.328 324.484 134.352 323.047 135.57C321.625 136.773 319.188 137.375 315.734 137.375ZM344.562 137H328.18V103.531H344.562V108.5H333.664V117.523H343.93V122.492H333.664V132.031H344.562V137ZM356.68 137.375C353.289 137.375 350.867 136.773 349.414 135.57C347.977 134.352 347.219 132.336 347.141 129.523C347.078 127.773 347.031 125.789 347 123.57C346.984 121.352 346.984 119.133 347 116.914C347.031 114.695 347.078 112.703 347.141 110.938C347.203 108.516 347.977 106.609 349.461 105.219C350.945 103.828 353.344 103.133 356.656 103.133C359.984 103.133 362.398 103.742 363.898 104.961C365.414 106.18 366.219 108.188 366.312 110.984C366.344 111.688 366.352 112.508 366.336 113.445C366.32 114.367 366.297 115.188 366.266 115.906H360.781C360.812 115.078 360.828 114.086 360.828 112.93C360.844 111.758 360.836 110.766 360.805 109.953C360.789 109.219 360.453 108.672 359.797 108.312C359.141 107.938 358.094 107.75 356.656 107.75C355.281 107.75 354.273 107.938 353.633 108.312C353.008 108.672 352.672 109.219 352.625 109.953C352.547 112.047 352.492 114.289 352.461 116.68C352.43 119.055 352.43 121.438 352.461 123.828C352.492 126.219 352.547 128.461 352.625 130.555C352.672 131.289 353.016 131.844 353.656 132.219C354.297 132.594 355.305 132.781 356.68 132.781C358.195 132.781 359.297 132.594 359.984 132.219C360.672 131.844 361.031 131.289 361.062 130.555C361.094 129.727 361.102 128.727 361.086 127.555C361.07 126.367 361.047 125.359 361.016 124.531H366.523C366.57 125.297 366.594 126.125 366.594 127.016C366.609 127.906 366.594 128.742 366.547 129.523C366.438 132.336 365.617 134.352 364.086 135.57C362.57 136.773 360.102 137.375 356.68 137.375ZM379.977 137H374.492V108.5H368.117V103.531H386.328V108.5H379.977V137ZM397.625 137.375C394.188 137.375 391.727 136.773 390.242 135.57C388.758 134.352 387.953 132.328 387.828 129.5C387.703 127.875 387.742 126.211 387.945 124.508H393.195C393.102 125.586 393.047 126.641 393.031 127.672C393.031 128.703 393.086 129.664 393.195 130.555C393.273 131.273 393.648 131.828 394.32 132.219C395.008 132.594 396.102 132.781 397.602 132.781C399.086 132.781 400.148 132.594 400.789 132.219C401.445 131.828 401.82 131.273 401.914 130.555C402.023 129.742 402.07 128.977 402.055 128.258C402.039 127.523 401.992 126.75 401.914 125.938C401.836 125.266 401.586 124.672 401.164 124.156C400.742 123.641 399.906 123.297 398.656 123.125L394.766 122.305C392.922 121.945 391.5 121.43 390.5 120.758C389.516 120.086 388.82 119.242 388.414 118.227C388.008 117.211 387.773 116.016 387.711 114.641C387.68 113.984 387.664 113.359 387.664 112.766C387.68 112.172 387.703 111.578 387.734 110.984C387.828 108.188 388.617 106.18 390.102 104.961C391.586 103.742 394.086 103.133 397.602 103.133C400.914 103.133 403.312 103.742 404.797 104.961C406.281 106.18 407.078 108.188 407.188 110.984C407.234 111.609 407.242 112.383 407.211 113.305C407.195 114.211 407.164 115.078 407.117 115.906H401.82C401.961 113.859 401.977 111.867 401.867 109.93C401.742 108.461 400.312 107.727 397.578 107.727C396.094 107.727 395.023 107.914 394.367 108.289C393.711 108.664 393.336 109.211 393.242 109.93C393.133 110.711 393.078 111.5 393.078 112.297C393.094 113.078 393.148 113.859 393.242 114.641C393.32 115.328 393.57 115.922 393.992 116.422C394.414 116.906 395.289 117.234 396.617 117.406L400.203 118.086C402.109 118.43 403.57 118.953 404.586 119.656C405.602 120.359 406.312 121.234 406.719 122.281C407.141 123.312 407.383 124.531 407.445 125.938C407.492 126.562 407.508 127.164 407.492 127.742C407.477 128.32 407.445 128.906 407.398 129.5C407.273 132.328 406.461 134.352 404.961 135.57C403.477 136.773 401.031 137.375 397.625 137.375Z" fill="white"/>
<path d="M72.096 83.6991H80.788C78.82 93.0471 70.374 100.017 60.288 100.017C48.808 100.017 39.46 90.8331 39.46 79.5171C39.46 68.2011 48.808 59.0171 60.288 59.0171C70.456 59.0171 78.902 66.1511 80.788 75.4991H72.178C70.456 70.6611 65.782 67.2171 60.288 67.2171C53.4 67.2171 47.824 72.7111 47.824 79.5171C47.824 86.3231 53.4 91.8171 60.288 91.8171C65.782 91.8171 70.374 88.4551 72.096 83.6991ZM89.9252 72.9571C89.9252 64.1011 101.159 59.0171 108.785 59.0171C113.787 59.0171 118.297 60.8211 121.577 63.2811C124.693 65.7411 127.399 69.3491 127.399 73.4491H119.035C119.035 73.0391 118.543 71.4811 116.493 69.9231C114.607 68.4471 111.901 67.3811 108.785 67.3811C105.587 67.3811 102.799 68.3651 100.831 69.8411C98.6992 71.3171 98.2892 72.7111 98.2892 72.9571C98.2892 73.2851 99.6832 74.0231 99.9292 74.1051C101.897 74.8431 105.013 75.3351 108.785 75.3351C115.509 75.3351 127.399 76.1551 127.399 85.3391C127.399 89.3571 124.775 93.0471 121.659 95.5071C118.379 98.1311 113.869 100.017 108.785 100.017C101.241 100.017 89.9252 95.0151 89.9252 86.1591H98.2892C98.2892 86.4051 98.6172 87.7991 100.831 89.2751C102.799 90.6691 105.587 91.6531 108.785 91.6531C111.819 91.6531 114.525 90.5051 116.411 89.0291C118.461 87.3891 119.035 85.8311 119.035 85.3391C118.871 85.2571 118.543 84.9291 117.723 84.6831C115.755 84.0271 112.721 83.6991 108.785 83.6991C101.897 83.6991 89.9252 82.1411 89.9252 72.9571ZM169.841 79.5171C169.841 72.7111 164.183 67.1351 157.295 67.1351C150.407 67.1351 144.831 72.7111 144.831 79.5171C144.831 86.3231 150.407 91.8171 157.295 91.8171C164.183 91.8171 169.841 86.3231 169.841 79.5171ZM178.123 79.5171C178.123 90.8331 168.857 100.017 157.295 100.017C152.621 100.017 148.275 98.4591 144.831 95.9171V100.345H136.467V79.0251C136.713 67.9551 145.979 59.0171 157.295 59.0171C168.857 59.0171 178.123 68.2011 178.123 79.5171Z" fill="white"/>
</svg>
