<svg width="413" height="300" viewBox="0 0 413 300" fill="none" xmlns="http://www.w3.org/2000/svg">
<path d="M0 299.52V0H86.72V39.04H49.92V260.48H86.72V299.52H0Z" fill="white"/>
<path d="M412.64 299.52H326.24V260.48H362.72V39.04H326.24V0H412.64V299.52Z" fill="white"/>
<path d="M138.056 157.752H154.168C152.344 166.467 147.885 173.712 140.792 179.488C133.699 185.163 125.491 188 116.168 188C105.528 188 96.408 184.301 88.808 176.904C81.3093 169.405 77.56 160.437 77.56 150C77.56 139.563 81.3093 130.645 88.808 123.248C96.408 115.749 105.528 112 116.168 112C125.491 112 133.699 114.939 140.792 120.816C147.987 126.592 152.445 133.837 154.168 142.552H138.208C136.587 137.992 133.749 134.293 129.696 131.456C125.744 128.619 121.235 127.2 116.168 127.2C109.784 127.2 104.312 129.429 99.752 133.888C95.2933 138.347 93.064 143.717 93.064 150C93.064 156.283 95.2933 161.653 99.752 166.112C104.312 170.571 109.784 172.8 116.168 172.8C121.235 172.8 125.744 171.432 129.696 168.696C133.648 165.859 136.435 162.211 138.056 157.752ZM171.105 137.84C171.105 132.672 173.081 128.061 177.033 124.008C180.985 119.853 185.545 116.813 190.713 114.888C195.983 112.963 201.1 112 206.065 112C214.881 112 222.785 114.635 229.777 119.904C236.972 125.579 240.569 131.861 240.569 138.752H225.065C225.065 136.827 223.495 134.648 220.353 132.216C216.3 129.075 211.537 127.504 206.065 127.504C200.289 127.504 195.375 129.024 191.321 132.064C188.18 134.192 186.609 136.117 186.609 137.84C186.609 138.549 187.623 139.259 189.649 139.968C193.703 141.488 199.175 142.248 206.065 142.248C229.068 142.248 240.569 148.429 240.569 160.792C240.569 167.784 237.023 174.067 229.929 179.64C222.937 185.213 214.983 188 206.065 188C201.1 188 195.983 187.037 190.713 185.112C185.545 183.187 180.985 180.197 177.033 176.144C173.081 172.091 171.105 167.48 171.105 162.312H186.609C186.609 164.035 188.18 165.96 191.321 168.088C195.476 171.027 200.391 172.496 206.065 172.496C211.335 172.496 216.047 170.875 220.201 167.632C223.444 164.997 225.065 162.717 225.065 160.792L224.609 160.64C224.407 160.437 224.103 160.235 223.697 160.032C223.393 159.829 223.039 159.677 222.633 159.576C218.985 158.36 213.463 157.752 206.065 157.752C202.316 157.752 198.668 157.499 195.121 156.992C191.575 156.485 187.825 155.573 183.873 154.256C180.023 152.939 176.932 150.912 174.601 148.176C172.271 145.339 171.105 141.893 171.105 137.84ZM312.401 166.112C316.961 161.653 319.241 156.283 319.241 150C319.241 143.717 316.961 138.347 312.401 133.888C307.841 129.328 302.369 127.048 295.985 127.048C289.601 127.048 284.129 129.328 279.569 133.888C275.111 138.347 272.881 143.717 272.881 150C272.881 156.283 275.111 161.653 279.569 166.112C284.129 170.571 289.601 172.8 295.985 172.8C302.369 172.8 307.841 170.571 312.401 166.112ZM323.345 123.096C330.844 130.493 334.593 139.461 334.593 150C334.593 160.539 330.844 169.507 323.345 176.904C315.847 184.301 306.727 188 295.985 188C287.473 188 279.772 185.467 272.881 180.4V202.288H257.377V149.088C257.58 138.853 261.431 130.139 268.929 122.944C276.529 115.648 285.548 112 295.985 112C306.727 112 315.847 115.699 323.345 123.096Z" fill="white"/>
</svg>
