<svg width="424" height="114" viewBox="0 0 424 114" fill="none" xmlns="http://www.w3.org/2000/svg">
<path fill-rule="evenodd" clip-rule="evenodd" d="M403.145 0.407803C414.187 0.407803 423.206 9.07846 423.768 19.9858H423.797V93.4026H413.196V72.6012H382.212V93.4026H371.611V19.9858C372.173 9.07846 381.22 0.407803 392.263 0.407803H403.145ZM413.196 20.7987C413.082 15.2484 408.551 10.8085 403.002 10.8085H392.616C387.03 10.8085 382.439 15.2177 382.212 20.8015V59.7531V61.9964H413.196V20.7987Z" fill="white"/>
<path fill-rule="evenodd" clip-rule="evenodd" d="M320.242 0H310.049V11.0132V61.9972V72.8485V93.4026H320.242V72.8485H326.196L346.741 93.4025H361.827L341.281 72.8485H341.302C352.657 72.8485 361.884 63.6761 361.954 52.3156L362.149 20.79C362.221 9.32936 352.953 0.00082722 341.497 0.00082722L320.242 0ZM320.242 11.0132V61.9972H340.905C347.108 59.4371 351.156 53.3863 351.156 46.6726V25.0905C351.156 19.1308 347.793 13.6819 342.466 11.0132H320.242ZM0 10.6046V0.203901L175.715 0.407838V10.6046L123.734 83.0017V65.2594L162.668 10.6046H0ZM424 114H123.734V103.395L175.715 30.9983V49.1484L136.984 103.395L424 103.191V114ZM0 21.0054V113.796H10.1923V78.5151L14.2692 74.0287L38.9346 113.796H51.3691L20.7923 64.6475L51.3691 21.0054H38.9346L10.1923 60.9767V21.0054H0ZM61.3578 41.4624C61.3578 30.0517 70.6039 20.8015 82.0096 20.8015H93.2981C104.704 20.8015 113.95 30.0517 113.95 41.4624V93.1351C113.95 104.546 104.704 113.796 93.2981 113.796H82.0096C70.6038 113.796 61.3578 104.546 61.3578 93.1351V41.4624ZM103.146 93.4025C103.033 98.9541 98.502 103.395 92.9518 103.395H82.3539C76.8373 103.395 72.3654 98.9215 72.3654 93.4025V41.6029C72.3654 35.8587 77.0198 31.2022 82.7615 31.2022H92.5441C98.3195 31.2022 103.033 35.8259 103.146 41.6029V93.4025ZM195.896 0H186.111V93.4026H195.896V72.601H227.288V93.4026H237.48V0H227.288V61.9964H195.896V0Z" fill="white"/>
<path d="M258.274 0.407803H248.081V72.7415C248.081 84.1522 257.327 93.4025 268.733 93.4025H278.798C290.203 93.4025 299.45 84.1522 299.45 72.7415V0.407875H289.258L289.461 73.009C289.348 78.5604 284.818 83.0017 279.267 83.0017H268.677C263.092 83.0017 258.501 78.5925 258.274 73.009V0.407803Z" fill="white"/>
</svg>
